<svg version="1.1" preserveAspectRatio="none" xmlns="http://www.w3.org/2000/svg" width="500" height="500" viewBox="0 0 500 500"><rect width="100%" height="100%" fill="#FFFFFF" fill-opacity="1"/><svg viewBox="301.0825 208.7058 282.3705 150" width="333" height="176.8952493266825" x="83.5px" y="161.5524px" xmlns="http://www.w3.org/2000/svg" xmlns:xlink="http://www.w3.org/1999/xlink" preserveAspectRatio="none"><defs></defs><style>.aD-YM9nyY4color {fill:#1A1245;fill-opacity:1;}.aD6z1nYkhcolor {fill:#1A1245;fill-opacity:1;}.atBXipXk0bfillColor {fill:#808080;fill-opacity:1;}.icon3-str {stroke:#C8B889;stroke-opacity:1;}.shapeStroke-str {stroke:#2C3E57;stroke-opacity:1;}</style><g opacity="1" transform="rotate(0 322.0825 208.7058)">
<svg width="261.3705" height="120" x="322.0825" y="208.7058" version="1.1" preserveAspectRatio="none" viewBox="-0.2734 -29.1992 156.99210000000002 72.0781">
  <g transform="matrix(1 0 0 1 0 0)" class="aD6z1nYkhcolor"><path id="id-D6z1nYkh15" d="M14.55-24.51L9.71-3.46Q8.79 0.43 7.81 2.36Q6.84 4.30 5.20 5.68L5.20 5.68Q2.93 7.56-0.27 8.36L-0.27 8.36L0.12 6.58Q1.13 6.05 1.91 5.36Q2.70 4.67 3.30 3.54L3.30 3.54Q3.71 2.77 4.04 1.36Q4.38-0.06 5.16-3.46L5.16-3.46L10.04-24.65Q10.12-24.92 10.12-25.14L10.12-25.14Q10.12-25.66 9.73-25.82L9.73-25.82Q8.65-26.25 8.65-26.91L8.65-26.91Q8.65-27.01 8.67-27.11L8.67-27.11Q8.83-27.81 9.65-27.81L9.65-27.81L16.27-27.81Q17.11-27.81 17.11-27.15L17.11-27.15Q17.11-27.05 17.07-26.95L17.07-26.95Q16.91-26.25 15.85-25.90Q14.79-25.55 14.55-24.51L14.55-24.51Z M25.53-27.73L25.53-27.73Q27.75-27.73 27.75-25.92L27.75-25.92Q27.75-25.57 27.66-25.12L27.66-25.12Q27.07-22.64 24.53-22.64L24.53-22.64Q22.32-22.64 22.32-24.43L22.32-24.43Q22.32-24.82 22.42-25.25L22.42-25.25Q22.99-27.73 25.53-27.73ZM26.09-20L22.13-2.77Q22.05-2.50 22.05-2.29L22.05-2.29Q22.05-1.76 22.44-1.60L22.44-1.60Q23.54-1.17 23.54-0.53L23.54-0.53Q23.54-0.43 23.50-0.33L23.50-0.33Q23.34 0.39 22.54 0.39L22.54 0.39L15.92 0.39Q15.10 0.39 15.10-0.27L15.10-0.27Q15.10-0.37 15.12-0.49L15.12-0.49Q15.29-1.17 16.35-1.51Q17.40-1.86 17.64-2.91L17.64-2.91L20.51-15.43Q20.59-15.68 20.59-15.90L20.59-15.90Q20.59-16.43 20.18-16.58L20.18-16.58Q19.10-17.01 19.10-17.68L19.10-17.68Q19.10-17.77 19.14-17.87L19.14-17.87Q19.30-18.59 20.10-18.59L20.10-18.59Q21.35-18.65 22.65-18.98Q23.95-19.32 26.09-20L26.09-20Z M37.38-19.96L36.80-17.42Q36.95-17.48 37.75-17.75Q38.55-18.03 39.28-18.28L39.28-18.28Q41.29-18.93 43.32-19.12L43.32-19.12Q43.59-19.14 43.87-19.14L43.87-19.14Q45.72-19.14 47.11-17.89L47.11-17.89Q47.58-17.42 47.62-17.32L47.62-17.32Q48.13-17.50 48.91-17.76Q49.69-18.03 50.39-18.28L50.39-18.28Q52.40-18.93 54.41-19.12L54.41-19.12Q54.71-19.14 54.98-19.14L54.98-19.14Q56.82-19.14 58.20-17.89L58.20-17.89Q59.47-16.70 59.47-14.06L59.47-14.06Q59.47-12.27 58.91-9.79L58.91-9.79L57.29-2.73Q57.21-2.46 57.21-2.25L57.21-2.25Q57.21-1.72 57.60-1.56L57.60-1.56Q58.69-1.13 58.69-0.49L58.69-0.49Q58.69-0.39 58.65-0.29L58.65-0.29Q58.50 0.43 57.68 0.43L57.68 0.43L52.93 0.43Q52.19 0.43 52.19-0.14L52.19-0.14L52.19-0.25L54.41-9.90Q54.82-11.66 54.82-12.97L54.82-12.97Q54.82-14.73 54.10-15.66L54.10-15.66Q53.36-16.58 51.99-16.58L51.99-16.58Q51.15-16.58 50.04-16.23L50.04-16.23Q49.61-16.09 49.01-15.90Q48.42-15.70 48.26-15.64L48.26-15.64Q48.38-15.20 48.38-14.20L48.38-14.20Q48.38-12.40 47.79-9.79L47.79-9.79L46.17-2.73Q46.09-2.46 46.09-2.25L46.09-2.25Q46.09-1.72 46.48-1.56L46.48-1.56Q47.58-1.13 47.58-0.49L47.58-0.49Q47.58-0.39 47.54-0.29L47.54-0.29Q47.38 0.43 46.58 0.43L46.58 0.43L39.96 0.43Q39.14 0.43 39.14-0.23L39.14-0.23Q39.14-0.33 39.16-0.45L39.16-0.45Q39.34-1.13 40.39-1.47Q41.45-1.82 41.68-2.87L41.68-2.87L43.30-9.90Q43.71-11.66 43.71-12.97L43.71-12.97Q43.71-14.73 42.99-15.66L42.99-15.66Q42.25-16.58 40.88-16.58L40.88-16.58Q40.04-16.58 38.93-16.23L38.93-16.23Q38.18-16.02 37.48-15.76Q36.78-15.51 36.31-15.35L36.31-15.35L33.42-2.73Q33.34-2.46 33.34-2.25L33.34-2.25Q33.34-1.72 33.73-1.56L33.73-1.56Q34.82-1.13 34.82-0.49L34.82-0.49Q34.82-0.39 34.79-0.29L34.79-0.29Q34.63 0.43 33.83 0.43L33.83 0.43L27.21 0.43Q26.39 0.43 26.39-0.23L26.39-0.23Q26.39-0.33 26.41-0.45L26.41-0.45Q26.58-1.13 27.64-1.47Q28.69-1.82 28.93-2.87L28.93-2.87L31.80-15.39Q31.88-15.64 31.88-15.86L31.88-15.86Q31.88-16.39 31.46-16.54L31.46-16.54Q30.39-16.97 30.39-17.64L30.39-17.64Q30.39-17.73 30.43-17.83L30.43-17.83Q30.59-18.55 31.39-18.55L31.39-18.55Q32.64-18.61 33.94-18.95Q35.23-19.28 37.38-19.96L37.38-19.96Z M69.98 0.88L69.98 0.88Q64.36 0.88 62.87-2.81L62.87-2.81Q62.23-4.39 62.23-6.17L62.23-6.17Q62.23-7.40 62.52-8.71L62.52-8.71Q62.77-9.77 63.20-10.88L63.20-10.88Q64.71-14.73 67.55-16.89Q70.39-19.06 74.41-19.06L74.41-19.06Q81.50-19.06 81.50-13.42L81.50-13.42Q81.50-12.19 81.17-10.68L81.17-10.68Q80.96-9.88 80.79-9.41Q80.63-8.95 79.49-8.95L79.49-8.95L67.54-8.95Q67.30-7.91 67.30-6.76L67.30-6.76Q67.30-5.02 67.99-3.75L67.99-3.75Q69.06-1.74 71.91-1.74L71.91-1.74Q72.64-1.74 73.57-1.93Q74.51-2.13 75.96-2.79L75.96-2.79Q77.30-3.46 77.83-3.46L77.83-3.46Q78.11-3.46 78.40-3.26L78.40-3.26Q78.50-3.07 78.50-2.93L78.50-2.93L78.50-2.81Q78.42-2.46 77.99-1.93L77.99-1.93Q77.64-1.43 77.43-1.25Q77.23-1.07 77.07-0.96L77.07-0.96Q75.39 0.23 73.53 0.56Q71.66 0.88 69.98 0.88ZM68.05-11.15L68.05-11.15L77.27-11.15Q77.54-12.32 77.54-13.42L77.54-13.42Q77.54-14.67 77.11-15.37L77.11-15.37Q76.35-16.60 74.02-16.60L74.02-16.60Q71.62-16.60 70.09-14.94Q68.55-13.28 68.05-11.15Z M90.57-11.54L90.57-11.54L88.55-2.77Q88.48-2.50 88.48-2.29L88.48-2.29Q88.48-1.76 88.89-1.60L88.89-1.60Q89.94-1.17 89.94-0.53L89.94-0.53Q89.94-0.43 89.90-0.33L89.90-0.33Q89.75 0.39 88.95 0.39L88.95 0.39L82.32 0.39Q81.50 0.39 81.50-0.27L81.50-0.27Q81.50-0.37 81.52-0.49L81.52-0.49Q81.70-1.17 82.75-1.51Q83.81-1.86 84.04-2.91L84.04-2.91L86.91-15.43Q86.99-15.68 86.99-15.90L86.99-15.90Q86.99-16.43 86.58-16.58L86.58-16.58Q85.51-17.01 85.51-17.68L85.51-17.68Q85.51-17.77 85.55-17.87L85.55-17.87Q85.70-18.59 86.50-18.59L86.50-18.59Q87.75-18.65 89.05-18.98Q90.35-19.32 92.52-20L92.52-20L91.93-17.44L94.04-18.18Q95.68-18.77 96.62-19.04L96.62-19.04Q96.97-19.14 97.40-19.14L97.40-19.14Q98.24-19.14 99.71-18.57L99.71-18.57L97.95-13.07L96.21-13.07Q96.11-15.92 94.41-15.92L94.41-15.92Q94.22-15.92 94.04-15.90L94.04-15.90Q92.75-15.76 91.89-14.53Q91.04-13.30 90.57-11.54Z M110.90-0.29L111.07-1.05L106.07 0.64Q105.31 0.88 104.80 0.88L104.80 0.88L103.98 0.88Q100.98 0.72 99.32-1.58L99.32-1.58Q98.09-3.32 98.09-5.64L98.09-5.64Q98.09-6.33 98.18-7.05L98.18-7.05Q98.30-7.89 98.50-8.67L98.50-8.67Q98.73-9.69 99.08-10.66L99.08-10.66Q99.73-12.40 101.19-14.10L101.19-14.10Q101.93-15 103.46-16.00L103.46-16.00Q104.00-16.31 104.65-16.56L104.65-16.56Q106.39-17.17 108.07-17.74Q109.75-18.32 111.48-18.93L111.48-18.93Q111.93-19.06 112.32-19.06L112.32-19.06L112.44-19.06Q113.77-19.00 115.49-18.40L115.49-18.40Q115.76-18.30 115.78-18.28L115.78-18.28Q116.07-18.14 116.64-17.93L116.64-17.93Q116.78-17.89 116.89-17.89L116.89-17.89Q117.03-17.89 117.17-17.97L117.17-17.97Q117.62-18.30 117.81-18.50L117.81-18.50Q118.07-18.79 118.48-18.79L118.48-18.79Q118.69-18.79 118.89-18.71L118.89-18.71Q119.49-18.46 119.49-18.03L119.49-18.03L119.49-17.93L116.02-2.77Q115.94-2.50 115.94-2.29L115.94-2.29Q115.94-1.76 116.33-1.60L116.33-1.60Q117.42-1.17 117.42-0.53L117.42-0.53Q117.42-0.43 117.38-0.33L117.38-0.33Q117.23 0.39 116.41 0.39L116.41 0.39L111.66 0.39Q110.90 0.39 110.90-0.18L110.90-0.18L110.90-0.29ZM111.56-3.13L114.30-14.94Q113.81-15.49 112.74-16.06Q111.68-16.64 110.82-16.68L110.82-16.68L110.76-16.68Q110.47-16.68 110.14-16.56L110.14-16.56Q109.38-16.31 108.62-16.04Q107.87-15.78 107.11-15.53L107.11-15.53Q106.66-15.35 106.37-15.12L106.37-15.12Q104.92-13.87 104.12-12.11L104.12-12.11Q103.48-10.76 103.18-9.43L103.18-9.43Q103.09-9.00 103.03-8.57L103.03-8.57Q102.89-7.68 102.89-6.91L102.89-6.91Q102.89-5.31 103.46-4.18L103.46-4.18Q104.26-2.54 105.92-2.05L105.92-2.05Q106.52-1.86 107.19-1.86L107.19-1.86Q107.40-1.86 107.66-1.88L107.66-1.88Q108.01-1.91 108.61-2.11L108.61-2.11Q109.06-2.25 110.10-2.61Q111.13-2.97 111.56-3.13L111.56-3.13Z M133.03-29.20L126.93-2.77Q126.86-2.50 126.86-2.29L126.86-2.29Q126.86-1.76 127.25-1.60L127.25-1.60Q128.34-1.17 128.34-0.53L128.34-0.53Q128.34-0.43 128.30-0.33L128.30-0.33Q128.14 0.39 127.34 0.39L127.34 0.39L120.72 0.39Q119.90 0.39 119.90-0.27L119.90-0.27Q119.90-0.37 119.92-0.49L119.92-0.49Q120.10-1.17 121.15-1.51Q122.21-1.86 122.44-2.91L122.44-2.91L127.44-24.63Q127.52-24.90 127.52-25.12L127.52-25.12Q127.52-25.64 127.11-25.80L127.11-25.80Q126.04-26.23 126.04-26.89L126.04-26.89Q126.04-26.99 126.07-27.09L126.07-27.09Q126.23-27.81 127.03-27.81L127.03-27.81Q128.28-27.87 129.58-28.19Q130.88-28.52 133.03-29.20L133.03-29.20Z M145.51-0.29L145.68-1.05L140.68 0.64Q139.92 0.88 139.41 0.88L139.41 0.88L138.59 0.88Q135.59 0.72 133.93-1.58L133.93-1.58Q132.70-3.32 132.70-5.64L132.70-5.64Q132.70-6.33 132.79-7.05L132.79-7.05Q132.91-7.89 133.11-8.67L133.11-8.67Q133.34-9.69 133.69-10.66L133.69-10.66Q134.34-12.40 135.80-14.10L135.80-14.10Q136.54-15 138.07-16.00L138.07-16.00Q138.61-16.31 139.26-16.56L139.26-16.56Q141.00-17.17 142.68-17.74Q144.36-18.32 146.09-18.93L146.09-18.93Q146.54-19.06 146.93-19.06L146.93-19.06L147.05-19.06Q148.38-19.00 150.10-18.40L150.10-18.40Q150.14-18.38 150.16-18.38L150.16-18.38Q150.18-18.38 150.18-18.40L150.18-18.40Q150.18-18.48 149.79-18.87L149.79-18.87L151.11-24.63Q151.19-24.90 151.19-25.12L151.19-25.12Q151.19-25.64 150.78-25.80L150.78-25.80Q149.71-26.23 149.71-26.89L149.71-26.89Q149.71-26.99 149.75-27.09L149.75-27.09Q149.90-27.81 150.70-27.81L150.70-27.81Q151.95-27.87 153.25-28.19Q154.55-28.52 156.72-29.20L156.72-29.20L150.63-2.77Q150.55-2.50 150.55-2.29L150.55-2.29Q150.55-1.76 150.94-1.60L150.94-1.60Q152.03-1.17 152.03-0.53L152.03-0.53Q152.03-0.43 151.99-0.33L151.99-0.33Q151.84 0.39 151.02 0.39L151.02 0.39L146.27 0.39Q145.51 0.39 145.51-0.18L145.51-0.18L145.51-0.29ZM146.17-3.13L148.91-14.96Q148.36-15.55 147.31-16.09Q146.27-16.64 145.43-16.68L145.43-16.68L145.37-16.68Q145.08-16.68 144.75-16.56L144.75-16.56Q143.98-16.31 143.23-16.04Q142.48-15.78 141.72-15.53L141.72-15.53Q141.27-15.35 140.98-15.12L140.98-15.12Q139.53-13.87 138.73-12.11L138.73-12.11Q138.09-10.76 137.79-9.43L137.79-9.43Q137.70-9.00 137.64-8.57L137.64-8.57Q137.50-7.68 137.50-6.91L137.50-6.91Q137.50-5.31 138.07-4.18L138.07-4.18Q138.87-2.54 140.53-2.05L140.53-2.05Q141.13-1.86 141.80-1.86L141.80-1.86Q142.01-1.86 142.27-1.88L142.27-1.88Q142.62-1.91 143.22-2.11L143.22-2.11Q143.67-2.25 144.71-2.61Q145.74-2.97 146.17-3.13L146.17-3.13Z M7.66 26.94L4.92 38.78Q5.37 39.34 6.43 39.92Q7.48 40.50 8.38 40.52L8.38 40.52L8.50 40.52Q8.71 40.52 9.06 40.40L9.06 40.40Q9.86 40.13 10.61 39.88Q11.35 39.64 12.11 39.36L12.11 39.36Q12.50 39.23 12.85 38.93L12.85 38.93Q14.26 37.72 15.08 35.96L15.08 35.96Q15.72 34.58 16.02 33.19L16.02 33.19Q16.11 32.78 16.19 32.39L16.19 32.39Q16.33 31.53 16.33 30.75L16.33 30.75Q16.33 29.17 15.76 28.02L15.76 28.02Q14.94 26.39 13.30 25.89L13.30 25.89Q12.64 25.69 11.93 25.69L11.93 25.69Q11.74 25.69 11.56 25.71L11.56 25.71Q11.15 25.75 10.63 25.93L10.63 25.93Q10.14 26.10 9.09 26.45Q8.05 26.80 7.66 26.94L7.66 26.94ZM3.46 42.14L3.46 42.14Q3.11 41.98 2.56 41.77L2.56 41.77Q2.42 41.73 2.29 41.73L2.29 41.73Q2.17 41.73 2.05 41.80L2.05 41.80Q1.56 42.16 1.37 42.35L1.37 42.35Q1.11 42.61 0.72 42.61L0.72 42.61Q0.49 42.61 0.31 42.51L0.31 42.51Q-0.27 42.27-0.27 41.84L-0.27 41.84L-0.27 41.75L5.33 17.37Q5.41 17.10 5.41 16.88L5.41 16.88Q5.41 16.36 5.00 16.20L5.00 16.20Q3.93 15.77 3.93 15.11L3.93 15.11Q3.93 15.01 3.96 14.91L3.96 14.91Q4.12 14.19 4.92 14.19L4.92 14.19Q6.17 14.13 7.47 13.81Q8.77 13.48 10.94 12.80L10.94 12.80L8.14 24.89L13.14 23.17Q13.81 22.96 14.38 22.92L14.38 22.92Q14.59 22.92 14.79 22.93Q15.00 22.94 15.23 22.94L15.23 22.94Q18.24 23.09 19.88 25.40L19.88 25.40Q21.11 27.20 21.11 29.56L21.11 29.56Q21.11 30.20 21.02 30.89L21.02 30.89Q20.90 31.73 20.72 32.51L20.72 32.51Q20.47 33.54 20.12 34.52L20.12 34.52Q19.47 36.26 18.03 37.94L18.03 37.94Q17.19 38.91 15.74 39.83L15.74 39.83Q15.18 40.18 14.55 40.40L14.55 40.40Q12.83 40.98 11.13 41.57Q9.43 42.16 7.73 42.74L7.73 42.74Q7.23 42.88 6.86 42.88L6.86 42.88L6.76 42.88Q5.47 42.82 3.69 42.23L3.69 42.23Q3.52 42.18 3.46 42.14Z M33.95 12.80L27.85 39.23Q27.77 39.50 27.77 39.71L27.77 39.71Q27.77 40.24 28.16 40.40L28.16 40.40Q29.26 40.83 29.26 41.47L29.26 41.47Q29.26 41.57 29.22 41.67L29.22 41.67Q29.06 42.39 28.26 42.39L28.26 42.39L21.64 42.39Q20.82 42.39 20.82 41.73L20.82 41.73Q20.82 41.63 20.84 41.51L20.84 41.51Q21.02 40.83 22.07 40.49Q23.13 40.14 23.36 39.09L23.36 39.09L28.36 17.37Q28.44 17.10 28.44 16.88L28.44 16.88Q28.44 16.36 28.03 16.20L28.03 16.20Q26.95 15.77 26.95 15.11L26.95 15.11Q26.95 15.01 26.99 14.91L26.99 14.91Q27.15 14.19 27.95 14.19L27.95 14.19Q29.20 14.13 30.50 13.81Q31.80 13.48 33.95 12.80L33.95 12.80Z M46.43 22.94L46.50 22.94Q50.55 23.11 52.68 26.06L52.68 26.06Q54.14 28.13 54.14 30.73L54.14 30.73Q54.14 31.80 53.89 32.98L53.89 32.98L53.87 33.09Q52.93 37.14 49.43 39.91L49.43 39.91Q45.86 42.76 41.58 42.88L41.58 42.88L41.27 42.88Q37.25 42.88 35.04 39.91L35.04 39.91Q33.44 37.80 33.44 35.18L33.44 35.18Q33.44 34.09 33.71 32.94L33.71 32.94L33.71 32.88Q34.77 28.45 38.75 25.46L38.75 25.46Q39.26 25.05 40.10 24.77Q40.94 24.50 42.52 23.99L42.52 23.99Q43.44 23.68 44.57 23.29L44.57 23.29Q45.70 22.94 46.43 22.94L46.43 22.94ZM45.74 25.03L45.74 25.03L45.53 25.03Q43.48 25.03 41.48 27.08L41.48 27.08Q39.28 29.34 38.52 32.66L38.52 32.66Q38.20 34.05 38.20 35.26L38.20 35.26Q38.20 37 38.85 38.41L38.85 38.41Q39.84 40.67 41.93 40.77L41.93 40.77L42.19 40.77Q44.22 40.77 46.21 38.72L46.21 38.72Q48.40 36.47 49.16 33.15L49.16 33.15Q49.47 31.79 49.47 30.57L49.47 30.57Q49.47 28.84 48.83 27.39L48.83 27.39Q47.81 25.14 45.74 25.03Z M66.45 22.90L66.45 22.90Q69.43 23.07 71.99 24.91L71.99 24.91L70.70 28.54Q70.51 29.13 69.86 29.13L69.86 29.13L69.79 29.13Q69.16 29.07 68.98 28.33L68.98 28.33Q68.67 26.98 67.67 26.10Q66.66 25.22 65.31 25.16L65.31 25.16L65.25 25.16Q64.18 25.16 62.97 25.71L62.97 25.71Q61.78 26.28 61.29 27.41L61.29 27.41Q61.09 27.82 61.04 28.13L61.04 28.13Q60.98 28.39 60.98 28.60L60.98 28.60Q60.98 29.23 61.50 29.52L61.50 29.52Q62.68 30.18 64.34 30.57L64.34 30.57Q66.78 31.16 68.67 32.14L68.67 32.14Q70.35 33.00 70.35 35.24L70.35 35.24Q70.35 35.83 70.23 36.53L70.23 36.53L70.20 36.73Q69.82 38.27 68.30 39.79L68.30 39.79Q66.64 41.45 64.06 42.29L64.06 42.29Q62.44 42.78 60.63 42.84L60.63 42.84L60.08 42.84Q57.60 42.84 55.18 42.10L55.18 42.10L54.55 37.49L54.71 37.04Q54.90 36.45 55.61 36.45L55.61 36.45L55.70 36.45Q56.23 36.57 56.43 37.23L56.43 37.23Q56.86 39.05 57.83 39.76Q58.81 40.48 60.61 40.54L60.61 40.54L60.84 40.54Q62.13 40.54 63.83 39.93L63.83 39.93Q65.57 39.30 66.02 37.66L66.02 37.66L66.05 37.55Q66.13 37.16 66.13 36.82L66.13 36.82Q66.13 35.67 64.96 35.32L64.96 35.32Q63.03 34.73 61.58 34.29L61.58 34.29Q59.69 33.72 58.14 32.51L58.14 32.51Q56.97 31.55 56.97 29.99L56.97 29.99Q56.97 29.42 57.11 28.82L57.11 28.82L57.13 28.72Q57.91 25.52 60.70 24.13L60.70 24.13Q63.22 22.88 65.94 22.88L65.94 22.88Q66.19 22.88 66.45 22.90Z M83.71 22.90L83.71 22.90Q86.70 23.07 89.26 24.91L89.26 24.91L87.97 28.54Q87.77 29.13 87.13 29.13L87.13 29.13L87.05 29.13Q86.43 29.07 86.25 28.33L86.25 28.33Q85.94 26.98 84.93 26.10Q83.93 25.22 82.58 25.16L82.58 25.16L82.52 25.16Q81.45 25.16 80.23 25.71L80.23 25.71Q79.04 26.28 78.55 27.41L78.55 27.41Q78.36 27.82 78.30 28.13L78.30 28.13Q78.24 28.39 78.24 28.60L78.24 28.60Q78.24 29.23 78.77 29.52L78.77 29.52Q79.94 30.18 81.60 30.57L81.60 30.57Q84.04 31.16 85.94 32.14L85.94 32.14Q87.62 33.00 87.62 35.24L87.62 35.24Q87.62 35.83 87.50 36.53L87.50 36.53L87.46 36.73Q87.09 38.27 85.57 39.79L85.57 39.79Q83.91 41.45 81.33 42.29L81.33 42.29Q79.71 42.78 77.89 42.84L77.89 42.84L77.34 42.84Q74.86 42.84 72.44 42.10L72.44 42.10L71.82 37.49L71.97 37.04Q72.17 36.45 72.87 36.45L72.87 36.45L72.97 36.45Q73.50 36.57 73.69 37.23L73.69 37.23Q74.12 39.05 75.10 39.76Q76.07 40.48 77.87 40.54L77.87 40.54L78.11 40.54Q79.39 40.54 81.09 39.93L81.09 39.93Q82.83 39.30 83.28 37.66L83.28 37.66L83.32 37.55Q83.40 37.16 83.40 36.82L83.40 36.82Q83.40 35.67 82.23 35.32L82.23 35.32Q80.29 34.73 78.85 34.29L78.85 34.29Q76.95 33.72 75.41 32.51L75.41 32.51Q74.24 31.55 74.24 29.99L74.24 29.99Q74.24 29.42 74.38 28.82L74.38 28.82L74.39 28.72Q75.18 25.52 77.97 24.13L77.97 24.13Q80.49 22.88 83.20 22.88L83.20 22.88Q83.46 22.88 83.71 22.90Z M102.58 22.94L102.66 22.94Q106.70 23.11 108.83 26.06L108.83 26.06Q110.29 28.13 110.29 30.73L110.29 30.73Q110.29 31.80 110.04 32.98L110.04 32.98L110.02 33.09Q109.08 37.14 105.59 39.91L105.59 39.91Q102.01 42.76 97.73 42.88L97.73 42.88L97.42 42.88Q93.40 42.88 91.19 39.91L91.19 39.91Q89.59 37.80 89.59 35.18L89.59 35.18Q89.59 34.09 89.86 32.94L89.86 32.94L89.86 32.88Q90.92 28.45 94.90 25.46L94.90 25.46Q95.41 25.05 96.25 24.77Q97.09 24.50 98.67 23.99L98.67 23.99Q99.59 23.68 100.72 23.29L100.72 23.29Q101.86 22.94 102.58 22.94L102.58 22.94ZM101.89 25.03L101.89 25.03L101.68 25.03Q99.63 25.03 97.64 27.08L97.64 27.08Q95.43 29.34 94.67 32.66L94.67 32.66Q94.36 34.05 94.36 35.26L94.36 35.26Q94.36 37 95.00 38.41L95.00 38.41Q96.00 40.67 98.09 40.77L98.09 40.77L98.34 40.77Q100.37 40.77 102.36 38.72L102.36 38.72Q104.55 36.47 105.31 33.15L105.31 33.15Q105.63 31.79 105.63 30.57L105.63 30.57Q105.63 28.84 104.98 27.39L104.98 27.39Q103.96 25.14 101.89 25.03Z M121.15 22.04L120.57 24.58Q120.72 24.52 121.52 24.25Q122.32 23.97 123.05 23.72L123.05 23.72Q125.06 23.07 127.09 22.88L127.09 22.88Q127.36 22.86 127.64 22.86L127.64 22.86Q129.49 22.86 130.88 24.11L130.88 24.11Q131.35 24.58 131.39 24.68L131.39 24.68Q131.89 24.50 132.68 24.24Q133.46 23.97 134.16 23.72L134.16 23.72Q136.17 23.07 138.18 22.88L138.18 22.88Q138.48 22.86 138.75 22.86L138.75 22.86Q140.59 22.86 141.97 24.11L141.97 24.11Q143.24 25.30 143.24 27.94L143.24 27.94Q143.24 29.73 142.68 32.21L142.68 32.21L141.05 39.27Q140.98 39.54 140.98 39.75L140.98 39.75Q140.98 40.28 141.37 40.44L141.37 40.44Q142.46 40.87 142.46 41.51L142.46 41.51Q142.46 41.61 142.42 41.71L142.42 41.71Q142.27 42.43 141.45 42.43L141.45 42.43L136.70 42.43Q135.96 42.43 135.96 41.86L135.96 41.86L135.96 41.75L138.18 32.10Q138.59 30.34 138.59 29.03L138.59 29.03Q138.59 27.27 137.87 26.34L137.87 26.34Q137.13 25.42 135.76 25.42L135.76 25.42Q134.92 25.42 133.81 25.77L133.81 25.77Q133.38 25.91 132.78 26.10Q132.19 26.30 132.03 26.36L132.03 26.36Q132.15 26.80 132.15 27.80L132.15 27.80Q132.15 29.60 131.56 32.21L131.56 32.21L129.94 39.27Q129.86 39.54 129.86 39.75L129.86 39.75Q129.86 40.28 130.25 40.44L130.25 40.44Q131.35 40.87 131.35 41.51L131.35 41.51Q131.35 41.61 131.31 41.71L131.31 41.71Q131.15 42.43 130.35 42.43L130.35 42.43L123.73 42.43Q122.91 42.43 122.91 41.77L122.91 41.77Q122.91 41.67 122.93 41.55L122.93 41.55Q123.11 40.87 124.16 40.53Q125.21 40.18 125.45 39.13L125.45 39.13L127.07 32.10Q127.48 30.34 127.48 29.03L127.48 29.03Q127.48 27.27 126.76 26.34L126.76 26.34Q126.02 25.42 124.65 25.42L124.65 25.42Q123.81 25.42 122.70 25.77L122.70 25.77Q121.95 25.98 121.25 26.24Q120.55 26.49 120.08 26.65L120.08 26.65L117.19 39.27Q117.11 39.54 117.11 39.75L117.11 39.75Q117.11 40.28 117.50 40.44L117.50 40.44Q118.59 40.87 118.59 41.51L118.59 41.51Q118.59 41.61 118.55 41.71L118.55 41.71Q118.40 42.43 117.60 42.43L117.60 42.43L110.98 42.43Q110.16 42.43 110.16 41.77L110.16 41.77Q110.16 41.67 110.18 41.55L110.18 41.55Q110.35 40.87 111.41 40.53Q112.46 40.18 112.70 39.13L112.70 39.13L115.57 26.61Q115.64 26.36 115.64 26.14L115.64 26.14Q115.64 25.61 115.23 25.46L115.23 25.46Q114.16 25.03 114.16 24.36L114.16 24.36Q114.16 24.27 114.20 24.17L114.20 24.17Q114.36 23.45 115.16 23.45L115.16 23.45Q116.41 23.39 117.71 23.05Q119.00 22.72 121.15 22.04L121.15 22.04Z"/></g>
</svg>
</g><g opacity="1" transform="rotate(0 301.0825 208.7058)">
<svg width="3" height="150" x="301.0825" y="208.7058" version="1.1" preserveAspectRatio="none" viewBox="0 0 3 150">
  <defs><rect x="0" y="0" width="3" height="150" rx="0px" ry="0px" id="id-tBXipXk0b1727596745433"></rect></defs><use class="atBXipXk0bfillColor shapeStroke-str" style="stroke-width:0;" xlink:href="#id-tBXipXk0b1727596745433"></use>
</svg>
</g><g opacity="1" transform="rotate(0 322.0825 344.7058)">
<svg width="153.9963" height="14" x="322.0825" y="344.7058" version="1.1" preserveAspectRatio="none" viewBox="1.4648 -30.3906 435.4743 39.5898">
  <g transform="matrix(1 0 0 1 0 0)" class="aD-YM9nyY4color"><path id="id-D-YM9nyY419" d="M28.03-26.23L28.83-29.61L38.44-29.61L37.64-26.23L34.96-26.23L29.73-3.36L32.64-3.36L31.88 0L22.27 0L23.03-3.36L25.64-3.36L28.11-14.00L11.37-14.00L8.93-3.36L11.84-3.36L11.07 0L1.46 0L2.23-3.36L4.84-3.36L10.12-26.23L7.23-26.23L8.03-29.61L17.64-29.61L16.84-26.23L14.16-26.23L12.11-17.29L28.87-17.29L30.92-26.23L28.03-26.23Z M53.55 0L53.87-1.37Q52.56-0.49 51.24-0.07Q49.92 0.35 48.51 0.35L48.51 0.35Q46.85 0.35 45.41-0.29Q43.96-0.94 42.90-2.05Q41.84-3.16 41.22-4.68Q40.60-6.19 40.60-7.93L40.60-7.93Q40.60-10.76 41.60-13.13Q42.60-15.49 44.31-17.19Q46.01-18.89 48.29-19.82Q50.57-20.76 53.12-20.76L53.12-20.76Q54.59-20.76 55.88-20.32Q57.17-19.88 57.99-19.18L57.99-19.18L58.24-20.23L62.17-20.23L58.26-3.36L61.41-3.36L60.64 0L53.55 0ZM49.43-3.01L49.43-3.01Q50.16-3.01 50.91-3.18Q51.66-3.36 52.34-3.63Q53.03-3.91 53.63-4.27Q54.24-4.63 54.71-5.02L54.71-5.02L57.23-15.84Q56.72-16.48 55.64-16.94Q54.57-17.40 52.83-17.40L52.83-17.40Q51.33-17.40 49.86-16.79Q48.40-16.17 47.25-15.01Q46.09-13.85 45.37-12.16Q44.65-10.47 44.65-8.32L44.65-8.32Q44.65-7.07 45.00-6.08Q45.35-5.10 45.98-4.41Q46.60-3.73 47.49-3.37Q48.38-3.01 49.43-3.01Z M68.01-16.88L68.81-20.23L76.48-20.23L76.21-18.91Q77.56-19.84 78.90-20.30Q80.25-20.76 81.72-20.76L81.72-20.76Q83.38-20.76 84.83-20.12Q86.29-19.47 87.35-18.36Q88.42-17.25 89.03-15.73Q89.65-14.22 89.65-12.48L89.65-12.48Q89.65-9.65 88.65-7.29Q87.65-4.92 85.95-3.22Q84.24-1.52 81.96-0.59Q79.69 0.35 77.13 0.35L77.13 0.35Q75.64 0.35 74.34-0.09Q73.05-0.53 72.21-1.23L72.21-1.23L70.58 5.84L73.92 5.84L73.16 9.20L65.80 9.20L71.87-16.88L68.01-16.88ZM80.80-17.40L80.80-17.40Q79.43-17.40 78.04-16.85Q76.64-16.29 75.47-15.33L75.47-15.33L72.99-4.61Q73.49-3.96 74.56-3.49Q75.62-3.01 77.40-3.01L77.40-3.01Q78.90-3.01 80.37-3.62Q81.83-4.24 83.00-5.40Q84.16-6.56 84.88-8.24Q85.60-9.92 85.60-12.07L85.60-12.07Q85.60-13.32 85.25-14.31Q84.90-15.29 84.27-15.98Q83.63-16.66 82.75-17.03Q81.87-17.40 80.80-17.40Z M94.84-16.88L95.64-20.23L103.32-20.23L103.04-18.91Q104.39-19.84 105.74-20.30Q107.09-20.76 108.55-20.76L108.55-20.76Q110.21-20.76 111.67-20.12Q113.12-19.47 114.19-18.36Q115.25-17.25 115.87-15.73Q116.48-14.22 116.48-12.48L116.48-12.48Q116.48-9.65 115.49-7.29Q114.49-4.92 112.78-3.22Q111.07-1.52 108.80-0.59Q106.52 0.35 103.96 0.35L103.96 0.35Q102.48 0.35 101.18-0.09Q99.88-0.53 99.04-1.23L99.04-1.23L97.42 5.84L100.76 5.84L100.00 9.20L92.63 9.20L98.71-16.88L94.84-16.88ZM107.63-17.40L107.63-17.40Q106.27-17.40 104.87-16.85Q103.47-16.29 102.30-15.33L102.30-15.33L99.82-4.61Q100.33-3.96 101.39-3.49Q102.46-3.01 104.24-3.01L104.24-3.01Q105.74-3.01 107.20-3.62Q108.67-4.24 109.83-5.40Q110.99-6.56 111.72-8.24Q112.44-9.92 112.44-12.07L112.44-12.07Q112.44-13.32 112.09-14.31Q111.74-15.29 111.10-15.98Q110.47-16.66 109.59-17.03Q108.71-17.40 107.63-17.40Z M121.89-16.88L122.69-20.23L130.25-20.23L126.34-3.36L129.59-3.36L128.82 0L121.62 0L125.52-16.88L121.89-16.88ZM126.42-27.36L126.42-27.36Q126.42-27.89 126.63-28.36Q126.83-28.83 127.18-29.17Q127.54-29.51 128.00-29.72Q128.47-29.92 129.02-29.92L129.02-29.92Q129.55-29.92 130.02-29.72Q130.49-29.51 130.83-29.17Q131.17-28.83 131.37-28.36Q131.58-27.89 131.58-27.36L131.58-27.36Q131.58-26.84 131.37-26.36Q131.17-25.88 130.83-25.52Q130.49-25.16 130.02-24.94Q129.55-24.73 129.02-24.73L129.02-24.73Q128.47-24.73 128.00-24.94Q127.54-25.16 127.18-25.52Q126.83-25.88 126.63-26.36Q126.42-26.84 126.42-27.36Z M136.62-16.88L137.42-20.23L145.05-20.23L144.57-18.16Q145.95-19.32 147.60-19.96Q149.25-20.61 151.09-20.61L151.09-20.61Q152.65-20.61 153.91-20.14Q155.17-19.67 155.97-18.71Q156.77-17.75 157.03-16.33Q157.28-14.90 156.85-13.01L156.85-13.01L154.63-3.36L157.50-3.36L156.73 0L149.90 0L152.81-12.52Q153.36-14.82 152.46-16.00Q151.56-17.17 149.41-17.17L149.41-17.17Q147.89-17.17 146.52-16.51Q145.15-15.86 143.92-14.69L143.92-14.69L140.54 0L136.58 0L140.48-16.88L136.62-16.88Z M183.02-9.43L167.48-9.43Q167.46-9.16 167.44-8.96Q167.42-8.77 167.42-8.59L167.42-8.59Q167.42-7.36 167.82-6.31Q168.22-5.25 168.93-4.48Q169.64-3.71 170.63-3.27Q171.62-2.83 172.79-2.83L172.79-2.83Q174.35-2.83 175.77-3.47Q177.18-4.10 178.14-5.31L178.14-5.31L181.03-3.20Q180.37-2.32 179.45-1.62Q178.53-0.92 177.42-0.42Q176.30 0.08 175.04 0.34Q173.78 0.61 172.48 0.61L172.48 0.61Q170.60 0.61 168.97-0.02Q167.34-0.64 166.12-1.84Q164.90-3.03 164.20-4.76Q163.51-6.48 163.51-8.67L163.51-8.67Q163.51-11.19 164.40-13.41Q165.29-15.63 166.86-17.28Q168.43-18.93 170.58-19.88Q172.73-20.84 175.23-20.84L175.23-20.84Q177.16-20.84 178.68-20.19Q180.19-19.53 181.25-18.46Q182.30-17.38 182.85-15.98Q183.39-14.57 183.39-13.09L183.39-13.09Q183.39-12.09 183.29-11.16Q183.18-10.23 183.02-9.43L183.02-9.43ZM174.70-17.52L174.70-17.52Q173.53-17.52 172.51-17.15Q171.48-16.78 170.64-16.11Q169.80-15.45 169.16-14.55Q168.51-13.65 168.10-12.60L168.10-12.60L179.62-12.60Q179.64-13.81 179.30-14.74Q178.96-15.66 178.31-16.28Q177.65-16.89 176.73-17.21Q175.82-17.52 174.70-17.52Z M199.56-14.61L199.56-14.61Q199.55-15.37 199.26-15.96Q198.98-16.54 198.48-16.94Q197.98-17.34 197.31-17.55Q196.64-17.75 195.85-17.75L195.85-17.75Q195.07-17.75 194.37-17.57Q193.67-17.38 193.14-17.01Q192.61-16.64 192.31-16.11Q192.01-15.59 192.01-14.92L192.01-14.92Q192.01-14.14 192.50-13.62Q193.00-13.11 194.08-12.68L194.08-12.68L197.85-11.33Q199.56-10.70 200.46-9.38Q201.36-8.07 201.36-6.19L201.36-6.19Q201.36-4.51 200.75-3.24Q200.13-1.97 199.04-1.11Q197.94-0.25 196.43 0.18Q194.92 0.61 193.12 0.61L193.12 0.61Q192.03 0.61 191.03 0.43Q190.03 0.25 189.18-0.11Q188.33-0.47 187.70-1.01Q187.06-1.54 186.71-2.25L186.71-2.25L184.64-2.25L185.44-5.61L189.56-5.61Q189.47-4.84 189.76-4.26Q190.05-3.67 190.60-3.27Q191.15-2.87 191.90-2.68Q192.65-2.48 193.49-2.48L193.49-2.48Q194.33-2.48 195.06-2.70Q195.80-2.91 196.34-3.32Q196.89-3.73 197.21-4.34Q197.53-4.94 197.53-5.72L197.53-5.72Q197.53-6.46 197.01-7.08Q196.48-7.70 195.37-8.09L195.37-8.09L191.77-9.39Q190.03-10.08 189.10-11.40Q188.16-12.71 188.16-14.36L188.16-14.36Q188.16-15.80 188.67-16.99Q189.17-18.18 190.17-19.04Q191.17-19.90 192.67-20.37Q194.17-20.84 196.17-20.84L196.17-20.84Q197.32-20.84 198.30-20.62Q199.27-20.39 200.03-20Q200.80-19.61 201.34-19.09Q201.89-18.57 202.22-17.97L202.22-17.97L204.41-17.97L203.61-14.61L199.56-14.61Z M220.13-14.61L220.13-14.61Q220.11-15.37 219.83-15.96Q219.54-16.54 219.05-16.94Q218.55-17.34 217.87-17.55Q217.20-17.75 216.42-17.75L216.42-17.75Q215.64-17.75 214.94-17.57Q214.23-17.38 213.70-17.01Q213.18-16.64 212.87-16.11Q212.57-15.59 212.57-14.92L212.57-14.92Q212.57-14.14 213.07-13.62Q213.57-13.11 214.64-12.68L214.64-12.68L218.41-11.33Q220.13-10.70 221.03-9.38Q221.93-8.07 221.93-6.19L221.93-6.19Q221.93-4.51 221.31-3.24Q220.70-1.97 219.60-1.11Q218.51-0.25 217.00 0.18Q215.48 0.61 213.69 0.61L213.69 0.61Q212.59 0.61 211.60 0.43Q210.60 0.25 209.75-0.11Q208.90-0.47 208.27-1.01Q207.63-1.54 207.28-2.25L207.28-2.25L205.21-2.25L206.01-5.61L210.13-5.61Q210.03-4.84 210.33-4.26Q210.62-3.67 211.17-3.27Q211.71-2.87 212.46-2.68Q213.22-2.48 214.06-2.48L214.06-2.48Q214.90-2.48 215.63-2.70Q216.36-2.91 216.91-3.32Q217.45-3.73 217.78-4.34Q218.10-4.94 218.10-5.72L218.10-5.72Q218.10-6.46 217.57-7.08Q217.04-7.70 215.93-8.09L215.93-8.09L212.34-9.39Q210.60-10.08 209.66-11.40Q208.72-12.71 208.72-14.36L208.72-14.36Q208.72-15.80 209.23-16.99Q209.74-18.18 210.74-19.04Q211.73-19.90 213.24-20.37Q214.74-20.84 216.73-20.84L216.73-20.84Q217.88-20.84 218.86-20.62Q219.84-20.39 220.60-20Q221.36-19.61 221.91-19.09Q222.45-18.57 222.79-17.97L222.79-17.97L224.97-17.97L224.17-14.61L220.13-14.61Z M243.59-26.23L244.37-29.61L255.09-29.61Q257.69-29.61 259.79-28.62Q261.89-27.64 263.36-25.93Q264.84-24.22 265.63-21.93Q266.42-19.65 266.42-17.07L266.42-17.07Q266.42-14.51 265.80-12.26Q265.19-10 264.06-8.10Q262.94-6.19 261.34-4.70Q259.74-3.20 257.79-2.16Q255.83-1.11 253.57-0.56Q251.30 0 248.82 0L248.82 0L237.53 0L238.29-3.36L240.87-3.36L246.14-26.23L243.59-26.23ZM254.58-26.23L250.19-26.23L244.95-3.36L249.25-3.36Q250.87-3.36 252.45-3.79Q254.04-4.22 255.47-5.04Q256.91-5.86 258.13-7.03Q259.35-8.20 260.24-9.69Q261.13-11.17 261.63-12.95Q262.14-14.73 262.14-16.76L262.14-16.76Q262.14-18.65 261.60-20.36Q261.07-22.07 260.08-23.38Q259.09-24.69 257.70-25.46Q256.30-26.23 254.58-26.23L254.58-26.23Z M289.11-9.43L273.57-9.43Q273.55-9.16 273.53-8.96Q273.51-8.77 273.51-8.59L273.51-8.59Q273.51-7.36 273.91-6.31Q274.31-5.25 275.02-4.48Q275.73-3.71 276.72-3.27Q277.71-2.83 278.88-2.83L278.88-2.83Q280.44-2.83 281.86-3.47Q283.27-4.10 284.23-5.31L284.23-5.31L287.12-3.20Q286.46-2.32 285.54-1.62Q284.62-0.92 283.51-0.42Q282.39 0.08 281.13 0.34Q279.87 0.61 278.57 0.61L278.57 0.61Q276.69 0.61 275.06-0.02Q273.43-0.64 272.21-1.84Q270.99-3.03 270.29-4.76Q269.60-6.48 269.60-8.67L269.60-8.67Q269.60-11.19 270.49-13.41Q271.38-15.63 272.95-17.28Q274.52-18.93 276.67-19.88Q278.82-20.84 281.32-20.84L281.32-20.84Q283.25-20.84 284.77-20.19Q286.28-19.53 287.34-18.46Q288.39-17.38 288.94-15.98Q289.48-14.57 289.48-13.09L289.48-13.09Q289.48-12.09 289.38-11.16Q289.27-10.23 289.11-9.43L289.11-9.43ZM280.79-17.52L280.79-17.52Q279.62-17.52 278.59-17.15Q277.57-16.78 276.73-16.11Q275.89-15.45 275.25-14.55Q274.60-13.65 274.19-12.60L274.19-12.60L285.71-12.60Q285.73-13.81 285.39-14.74Q285.05-15.66 284.40-16.28Q283.74-16.89 282.82-17.21Q281.91-17.52 280.79-17.52Z M295.38-27.03L296.18-30.39L304.03-30.39L297.78-3.36L301.14-3.36L300.38 0L293.08 0L299.29-27.03L295.38-27.03Z M307.69-16.88L308.49-20.23L316.04-20.23L312.14-3.36L315.38-3.36L314.62 0L307.41 0L311.32-16.88L307.69-16.88ZM312.22-27.36L312.22-27.36Q312.22-27.89 312.42-28.36Q312.63-28.83 312.98-29.17Q313.33-29.51 313.80-29.72Q314.27-29.92 314.81-29.92L314.81-29.92Q315.34-29.92 315.81-29.72Q316.28-29.51 316.62-29.17Q316.96-28.83 317.17-28.36Q317.37-27.89 317.37-27.36L317.37-27.36Q317.37-26.84 317.17-26.36Q316.96-25.88 316.62-25.52Q316.28-25.16 315.81-24.94Q315.34-24.73 314.81-24.73L314.81-24.73Q314.27-24.73 313.80-24.94Q313.33-25.16 312.98-25.52Q312.63-25.88 312.42-26.36Q312.22-26.84 312.22-27.36Z M321.40-16.88L322.18-20.23L329.58-20.23L328.78-16.88L327.24-16.88L328.45-4.39L336.40-16.88L334.75-16.88L335.56-20.23L342.94-20.23L342.14-16.88L340.59-16.88L328.99 0.31L325.56 0.31L323.29-16.88L321.40-16.88Z M364.66-9.43L349.11-9.43Q349.09-9.16 349.07-8.96Q349.05-8.77 349.05-8.59L349.05-8.59Q349.05-7.36 349.45-6.31Q349.85-5.25 350.56-4.48Q351.28-3.71 352.26-3.27Q353.25-2.83 354.42-2.83L354.42-2.83Q355.98-2.83 357.40-3.47Q358.82-4.10 359.77-5.31L359.77-5.31L362.66-3.20Q362.00-2.32 361.08-1.62Q360.16-0.92 359.05-0.42Q357.94 0.08 356.68 0.34Q355.42 0.61 354.11 0.61L354.11 0.61Q352.23 0.61 350.60-0.02Q348.97-0.64 347.75-1.84Q346.53-3.03 345.84-4.76Q345.14-6.48 345.14-8.67L345.14-8.67Q345.14-11.19 346.03-13.41Q346.92-15.63 348.49-17.28Q350.07-18.93 352.21-19.88Q354.36-20.84 356.86-20.84L356.86-20.84Q358.80-20.84 360.31-20.19Q361.82-19.53 362.88-18.46Q363.93-17.38 364.48-15.98Q365.03-14.57 365.03-13.09L365.03-13.09Q365.03-12.09 364.92-11.16Q364.81-10.23 364.66-9.43L364.66-9.43ZM356.34-17.52L356.34-17.52Q355.16-17.52 354.14-17.15Q353.11-16.78 352.27-16.11Q351.43-15.45 350.79-14.55Q350.14-13.65 349.73-12.60L349.73-12.60L361.26-12.60Q361.28-13.81 360.94-14.74Q360.59-15.66 359.94-16.28Q359.29-16.89 358.37-17.21Q357.45-17.52 356.34-17.52Z M386.57-20.12L385.28-14.65L381.32-14.65L381.88-17.03Q379.99-17.03 378.66-16.06Q377.33-15.10 376.47-13.52L376.47-13.52L374.13-3.36L377.49-3.36L376.73 0L369.40 0L373.31-16.88L369.44-16.88L370.24-20.23L377.88-20.23L377.23-17.46Q377.78-18.09 378.41-18.62Q379.03-19.16 379.72-19.55Q380.42-19.94 381.17-20.17Q381.92-20.39 382.68-20.39L382.68-20.39Q383.39-20.39 383.89-20.37Q384.40-20.35 384.98-20.30Q385.55-20.25 386.57-20.12L386.57-20.12Z M409.69-9.43L394.15-9.43Q394.13-9.16 394.11-8.96Q394.09-8.77 394.09-8.59L394.09-8.59Q394.09-7.36 394.49-6.31Q394.89-5.25 395.60-4.48Q396.31-3.71 397.30-3.27Q398.29-2.83 399.46-2.83L399.46-2.83Q401.02-2.83 402.44-3.47Q403.85-4.10 404.81-5.31L404.81-5.31L407.70-3.20Q407.04-2.32 406.12-1.62Q405.20-0.92 404.09-0.42Q402.98 0.08 401.72 0.34Q400.46 0.61 399.15 0.61L399.15 0.61Q397.27 0.61 395.64-0.02Q394.01-0.64 392.79-1.84Q391.57-3.03 390.88-4.76Q390.18-6.48 390.18-8.67L390.18-8.67Q390.18-11.19 391.07-13.41Q391.96-15.63 393.53-17.28Q395.10-18.93 397.25-19.88Q399.40-20.84 401.90-20.84L401.90-20.84Q403.83-20.84 405.35-20.19Q406.86-19.53 407.92-18.46Q408.97-17.38 409.52-15.98Q410.06-14.57 410.06-13.09L410.06-13.09Q410.06-12.09 409.96-11.16Q409.85-10.23 409.69-9.43L409.69-9.43ZM401.37-17.52L401.37-17.52Q400.20-17.52 399.18-17.15Q398.15-16.78 397.31-16.11Q396.47-15.45 395.83-14.55Q395.18-13.65 394.77-12.60L394.77-12.60L406.30-12.60Q406.31-13.81 405.97-14.74Q405.63-15.66 404.98-16.28Q404.32-16.89 403.40-17.21Q402.49-17.52 401.37-17.52Z M428.83-27.03L429.63-30.39L436.94-30.39L430.71-3.36L434.07-3.36L433.31 0L426.02 0L426.31-1.31Q425.20-0.55 423.98-0.08Q422.76 0.39 421.35 0.39L421.35 0.39Q419.61 0.39 418.11-0.27Q416.61-0.94 415.48-2.11Q414.36-3.28 413.72-4.87Q413.07-6.46 413.07-8.32L413.07-8.32Q413.07-11.02 414.03-13.30Q414.99-15.59 416.64-17.27Q418.29-18.95 420.48-19.89Q422.68-20.84 425.18-20.84L425.18-20.84Q426.74-20.84 428.09-20.39Q429.44-19.94 430.44-19.16L430.44-19.16L432.25-27.03L428.83-27.03ZM422.27-3.01L422.27-3.01Q423.50-3.01 424.82-3.55Q426.14-4.10 427.21-5.16L427.21-5.16L429.63-15.64Q428.91-16.48 427.76-16.94Q426.61-17.40 424.95-17.40L424.95-17.40Q423.48-17.40 422.07-16.79Q420.65-16.17 419.56-15.04Q418.46-13.91 417.79-12.29Q417.11-10.66 417.11-8.67L417.11-8.67Q417.11-7.36 417.50-6.32Q417.88-5.27 418.56-4.54Q419.24-3.81 420.19-3.41Q421.14-3.01 422.27-3.01Z"/></g>
</svg>
</g></svg></svg>